# xmcd
#
# Track frame offsets:
#	150
#	19695
#	41070
#	61189
#	78840
#	100970
#	122665
#	140187
#	161305
#	182532
#
# Disc length: 2688 seconds
#
# Revision: 1
# Processed by: cddbd v1.4PL0 Copyright (c) Steve Scherf et al.
# Submitted via: audiograbber 1.80
#
DISCID=7a0a7e0a
DTITLE=Kayo - 歌謠
DYEAR=1900
DGENRE=
TTITLE0=Sad Love(애모)
TTITLE1=The Day After(헤어진 다음날)
TTITLE2=Don't Look Back(만남)
TTITLE3=Between The Leaves(나뭇잎 사이로)
TTITLE4=Winter Child(겨울 아이)
TTITLE5=You So Far Away(님은 먼곳에)
TTITLE6=You Will Never Know(당신은 모르실거야)
TTITLE7=Come Back To Me(내사랑 내곁에)
TTITLE8=Why I Live(존재의 이유)
TTITLE9=You Are My Love(그대 그리고 나)
EXTD=
EXTT0=
EXTT1=
EXTT2=
EXTT3=
EXTT4=
EXTT5=
EXTT6=
EXTT7=
EXTT8=
EXTT9=
PLAYORDER=
